<?xml version="1.0" encoding="UTF-8" standalone="no"?>
<!DOCTYPE svg PUBLIC "-//W3C//DTD SVG 1.1//EN" "http://www.w3.org/Graphics/SVG/1.1/DTD/svg11.dtd">
<svg width="100%" height="100%" viewBox="0 0 3000 3000" version="1.1" xmlns="http://www.w3.org/2000/svg" xmlns:xlink="http://www.w3.org/1999/xlink" xml:space="preserve" xmlns:serif="http://www.serif.com/" style="fill-rule:evenodd;clip-rule:evenodd;stroke-linejoin:round;stroke-miterlimit:2;">
    <g>
        <path d="M958.383,2186.3C958.383,2214.83 935.17,2238.04 906.638,2238.04L404.17,2238.04C375.638,2238.04 352.425,2214.83 352.425,2186.3L352.425,1683.83C352.425,1655.3 375.638,1632.08 404.17,1632.08L906.638,1632.08C935.17,1632.08 958.383,1655.3 958.383,1683.83L958.383,2186.3ZM906.638,1552.08L404.17,1552.08C331.41,1552.08 272.425,1611.07 272.425,1683.83L272.425,2186.3C272.425,2259.06 331.41,2318.04 404.17,2318.04L906.638,2318.04C979.399,2318.04 1038.38,2259.06 1038.38,2186.3L1038.38,1683.83C1038.38,1611.07 979.399,1552.08 906.638,1552.08Z" style="fill:rgb(51,51,51);fill-rule:nonzero;"/>
        <path d="M1802.98,2186.3C1802.98,2214.83 1779.77,2238.04 1751.23,2238.04L1248.77,2238.04C1220.23,2238.04 1197.02,2214.83 1197.02,2186.3L1197.02,1683.83C1197.02,1655.3 1220.23,1632.08 1248.77,1632.08L1751.23,1632.08C1779.77,1632.08 1802.98,1655.3 1802.98,1683.83L1802.98,2186.3ZM1751.23,1552.08L1248.77,1552.08C1176.01,1552.08 1117.02,1611.07 1117.02,1683.83L1117.02,2186.3C1117.02,2259.06 1176.01,2318.04 1248.77,2318.04L1751.23,2318.04C1824,2318.04 1882.98,2259.06 1882.98,2186.3L1882.98,1683.83C1882.98,1611.07 1824,1552.08 1751.23,1552.08Z" style="fill:rgb(51,51,51);fill-rule:nonzero;"/>
        <path d="M1802.98,1316.17C1802.98,1344.7 1779.77,1367.91 1751.23,1367.91L1248.77,1367.91C1220.23,1367.91 1197.02,1344.7 1197.02,1316.17L1197.02,813.702C1197.02,785.17 1220.23,761.958 1248.77,761.958L1751.23,761.958C1779.77,761.958 1802.98,785.17 1802.98,813.702L1802.98,1316.17ZM1751.23,681.958L1248.77,681.958C1176.01,681.958 1117.02,740.941 1117.02,813.702L1117.02,1316.17C1117.02,1388.93 1176.01,1447.91 1248.77,1447.91L1751.23,1447.91C1824,1447.91 1882.98,1388.93 1882.98,1316.17L1882.98,813.702C1882.98,740.941 1824,681.958 1751.23,681.958Z" style="fill:rgb(51,51,51);fill-rule:nonzero;"/>
        <path d="M2647.57,2186.3C2647.57,2214.83 2624.36,2238.04 2595.83,2238.04L2093.36,2238.04C2064.83,2238.04 2041.62,2214.83 2041.62,2186.3L2041.62,1683.83C2041.62,1655.3 2064.83,1632.08 2093.36,1632.08L2595.83,1632.08C2624.36,1632.08 2647.57,1655.3 2647.57,1683.83L2647.57,2186.3ZM2595.83,1552.08L2093.36,1552.08C2020.6,1552.08 1961.62,1611.07 1961.62,1683.83L1961.62,2186.3C1961.62,2259.06 2020.6,2318.04 2093.36,2318.04L2595.83,2318.04C2668.59,2318.04 2727.57,2259.06 2727.57,2186.3L2727.57,1683.83C2727.57,1611.07 2668.59,1552.08 2595.83,1552.08Z" style="fill:rgb(51,51,51);fill-rule:nonzero;"/>
        <path d="M813.191,1895.07L594.184,1895.07L683.345,1805.91C691.155,1798.1 695.061,1787.86 695.061,1777.62C695.061,1767.39 691.155,1757.15 683.345,1749.34C667.724,1733.72 642.397,1733.72 626.776,1749.34L469.335,1906.78C469.099,1907.02 468.876,1907.26 468.647,1907.5C468.431,1907.73 468.208,1907.95 467.997,1908.19C467.817,1908.38 467.649,1908.59 467.474,1908.79C467.218,1909.08 466.958,1909.37 466.711,1909.67C466.584,1909.83 466.466,1909.99 466.343,1910.14C466.055,1910.5 465.768,1910.86 465.493,1911.23C465.42,1911.33 465.352,1911.43 465.28,1911.53C464.962,1911.97 464.649,1912.41 464.349,1912.86C464.326,1912.89 464.304,1912.93 464.281,1912.96C460.073,1919.3 457.617,1926.89 457.617,1935.07C457.617,1946.18 462.148,1956.22 469.46,1963.47L626.776,2120.79C642.397,2136.41 667.724,2136.41 683.345,2120.79C698.966,2105.17 698.966,2079.84 683.345,2064.22L594.191,1975.07L813.191,1975.07C835.283,1975.07 853.191,1957.16 853.191,1935.07C853.191,1912.98 835.283,1895.07 813.191,1895.07Z" style="fill:rgb(51,51,51);fill-rule:nonzero;"/>
        <path d="M1629.16,1907.12L1540,1996.28L1540,1777.28C1540,1755.18 1522.09,1737.28 1500,1737.28C1477.91,1737.28 1460,1755.18 1460,1777.28L1460,1996.28L1370.84,1907.12C1363.03,1899.31 1352.8,1895.41 1342.56,1895.41C1332.32,1895.41 1322.08,1899.31 1314.27,1907.12C1298.65,1922.74 1298.65,1948.07 1314.27,1963.69L1471.72,2121.13C1471.95,2121.37 1472.2,2121.59 1472.44,2121.82C1472.67,2122.04 1472.89,2122.26 1473.12,2122.47C1473.32,2122.65 1473.52,2122.82 1473.73,2122.99C1474.02,2123.25 1474.31,2123.51 1474.61,2123.76C1474.77,2123.88 1474.92,2124 1475.08,2124.13C1475.44,2124.41 1475.8,2124.7 1476.17,2124.97C1476.27,2125.05 1476.37,2125.12 1476.47,2125.19C1476.91,2125.51 1477.35,2125.82 1477.79,2126.12C1477.83,2126.14 1477.87,2126.16 1477.9,2126.19C1484.23,2130.39 1491.83,2132.85 1500,2132.85C1511.11,2132.85 1521.16,2128.32 1528.41,2121.01L1685.73,1963.69C1701.35,1948.07 1701.35,1922.74 1685.73,1907.12C1670.1,1891.5 1644.78,1891.5 1629.16,1907.12Z" style="fill:rgb(51,51,51);fill-rule:nonzero;"/>
        <path d="M1528.28,878.867C1528.05,878.631 1527.8,878.409 1527.56,878.179C1527.33,877.962 1527.11,877.74 1526.88,877.528C1526.68,877.349 1526.47,877.181 1526.27,877.006C1525.98,876.75 1525.69,876.49 1525.39,876.243C1525.24,876.116 1525.08,875.999 1524.92,875.875C1524.56,875.587 1524.2,875.3 1523.83,875.025C1523.73,874.952 1523.63,874.884 1523.53,874.812C1523.09,874.494 1522.65,874.181 1522.21,873.881C1522.17,873.857 1522.13,873.836 1522.1,873.813C1515.77,869.605 1508.17,867.149 1500,867.149C1488.89,867.149 1478.84,871.68 1471.59,878.992L1314.27,1036.31C1298.65,1051.93 1298.65,1077.26 1314.27,1092.88C1329.9,1108.5 1355.22,1108.5 1370.84,1092.88L1460,1003.72L1460,1222.72C1460,1244.81 1477.91,1262.72 1500,1262.72C1522.09,1262.72 1540,1244.81 1540,1222.72L1540,1003.72L1629.16,1092.88C1636.97,1100.69 1647.2,1104.59 1657.44,1104.59C1667.68,1104.59 1677.92,1100.69 1685.73,1092.88C1701.35,1077.26 1701.35,1051.93 1685.73,1036.31L1528.28,878.867Z" style="fill:rgb(51,51,51);fill-rule:nonzero;"/>
        <path d="M2373.22,1749.34C2357.6,1733.72 2332.28,1733.72 2316.66,1749.34C2301.03,1764.96 2301.03,1790.29 2316.66,1805.91L2405.81,1895.06L2186.81,1895.06C2164.72,1895.06 2146.81,1912.97 2146.81,1935.06C2146.81,1957.15 2164.72,1975.06 2186.81,1975.06L2405.82,1975.06L2316.66,2064.22C2308.84,2072.03 2304.94,2082.27 2304.94,2092.5C2304.94,2102.74 2308.84,2112.98 2316.66,2120.79C2332.28,2136.41 2357.6,2136.41 2373.22,2120.79L2530.67,1963.35C2530.9,1963.11 2531.12,1962.87 2531.35,1962.63C2531.57,1962.4 2531.79,1962.17 2532,1961.94C2532.18,1961.74 2532.35,1961.54 2532.53,1961.34C2532.78,1961.04 2533.04,1960.75 2533.29,1960.45C2533.42,1960.3 2533.53,1960.14 2533.66,1959.98C2533.94,1959.62 2534.23,1959.26 2534.51,1958.89C2534.58,1958.79 2534.65,1958.69 2534.72,1958.59C2535.04,1958.16 2535.35,1957.72 2535.65,1957.27C2535.67,1957.23 2535.7,1957.2 2535.72,1957.16C2539.93,1950.83 2542.38,1943.23 2542.38,1935.06C2542.38,1923.95 2537.85,1913.9 2530.54,1906.65L2373.22,1749.34Z" style="fill:rgb(51,51,51);fill-rule:nonzero;"/>
    </g>
</svg>
